inDegrees=no
num_controls=7
num_derivatives=13
num_iterations=153
num_multipliers=7
num_parameters=0
num_slacks=7
num_states=26
objective=5.931072
objective_accelerations=0.573844
objective_balance=0.026551
objective_effort=0.566034
objective_height=4.646259
objective_ligament=0.118383
solver_duration=1800.995445
status=Solve_Succeeded
success=true
DataType=double
version=3
OpenSimVersion=4.4-2022-07-23-0e9fedc
endheader
time	/jointset/ground_pelvis/pelvis_tilt/value	/jointset/ground_pelvis/pelvis_tx/value	/jointset/ground_pelvis/pelvis_ty/value	/jointset/hip_l/hip_flexion_l/value	/jointset/hip_l/hip_adduction_l/value	/jointset/hip_l/hip_rotation_l/value	/jointset/back/lumbar_extension/value	/jointset/patellofemoral_l/patellar_flexion_l/value	/jointset/knee_l/knee_flexion_l/value	/jointset/knee_l/knee_adduction_l/value	/jointset/knee_l/knee_rotation_l/value	/jointset/ankle_l/ankle_angle_l/value	/jointset/subtalar_l/subtalar_angle_l/value	/jointset/ground_pelvis/pelvis_tilt/speed	/jointset/ground_pelvis/pelvis_tx/speed	/jointset/ground_pelvis/pelvis_ty/speed	/jointset/hip_l/hip_flexion_l/speed	/jointset/hip_l/hip_adduction_l/speed	/jointset/hip_l/hip_rotation_l/speed	/jointset/back/lumbar_extension/speed	/jointset/patellofemoral_l/patellar_flexion_l/speed	/jointset/knee_l/knee_flexion_l/speed	/jointset/knee_l/knee_adduction_l/speed	/jointset/knee_l/knee_rotation_l/speed	/jointset/ankle_l/ankle_angle_l/speed	/jointset/subtalar_l/subtalar_angle_l/speed	/forceset/tau_hip_flexion_l	/forceset/tau_hip_adduction_l	/forceset/tau_hip_rotation_l	/forceset/tau_knee_flexion_l	/forceset/tau_ankle_angle_l	/forceset/tau_subtalar_angle_l	/forceset/tau_lumbar_extension	lambda_cid13_p0	lambda_cid13_p1	lambda_cid13_p2	lambda_cid13_p3	lambda_cid13_p4	lambda_cid13_p5	lambda_cid14_p0	/jointset/ground_pelvis/pelvis_tilt/accel	/jointset/ground_pelvis/pelvis_tx/accel	/jointset/ground_pelvis/pelvis_ty/accel	/jointset/hip_l/hip_flexion_l/accel	/jointset/hip_l/hip_adduction_l/accel	/jointset/hip_l/hip_rotation_l/accel	/jointset/back/lumbar_extension/accel	/jointset/patellofemoral_l/patellar_flexion_l/accel	/jointset/knee_l/knee_flexion_l/accel	/jointset/knee_l/knee_adduction_l/accel	/jointset/knee_l/knee_rotation_l/accel	/jointset/ankle_l/ankle_angle_l/accel	/jointset/subtalar_l/subtalar_angle_l/accel	gamma_cid13_p0	gamma_cid13_p1	gamma_cid13_p2	gamma_cid13_p3	gamma_cid13_p4	gamma_cid13_p5	gamma_cid14_p0
0.5	-0.1627354603752385	-0.07920253078920514	0.7945792262388532	1.035777475622887	-0.3263919563918203	-0.0927399607392965	-0.7994281969426139	0.8785041753019975	0.8785041753018947	-0.1029076976732424	-0.1744847867293839	0.06418442141617463	-0.0125764362521751	-0.3109003357653953	-0.2357841135487977	-0.4507865783061621	1.86738606727634	-0.03047512519828182	0.5333635812833788	-0.8304940974071715	1.666948508481326	1.666948508481334	0.1420147597961551	0.0003786101666824503	0.2154459644527235	0.03246299151547415	-0.3183599276067555	0.01224252204580015	-0.004090153488774929	-0.2229644873339445	0.1395486072851612	0.05215318390388469	0.3544294310524674	0.2018289413874971	-23.57434182153064	4.319396855330458	-13.76652072915335	-704.9658907910078	-76.29853987591821	-11.46561491283027	0.4185523167330392	0.8280651215523905	-0.1531061217024778	-1.728596454820985	0.3178328174001454	-0.4370677768414841	2.062350434703561	-1.359329230005661	-1.359329230005662	-0.266846988941941	-0.0009896104291638151	-0.1054195564682708	0.3122967225326963	-2.312872391607966e-07	-1.727367831191468e-07	1.224609563157398e-06	1.193854292531407e-07	-2.459809051032352e-07	1.541458772638929e-07	-1.988067370326509e-07
0.51	-0.1658230042459513	-0.08151890486095764	0.7900647053218803	1.054362079081693	-0.3266816782787212	-0.08742763362825789	-0.8076293415997657	0.8951030703222981	0.8951030703222064	-0.1015032919628363	-0.1744811265799987	0.06633276958364129	-0.01223738535186952	-0.3065643505387683	-0.2274868362523321	-0.4520155612315083	1.849282366311425	-0.02747476792064229	0.5290353397355374	-0.8096573773107201	1.652587055052858	1.652587055052886	0.1388609350180838	0.000348147283636492	0.21417143600455	0.03532693389340978	-0.3259935135328523	0.01217357744628773	-0.004279442624895376	-0.2259611033562384	0.1404650888668268	0.05239632010819001	0.3614758929051392	0.197045367857169	-23.61429972938756	4.251751204007273	-13.77998394418813	-709.9744249036968	-76.13745806351837	-10.8038618523344	0.4477105855956319	0.8311623761734399	-0.09253475734584668	-1.889126505538822	0.2901695542656867	-0.4408560012478034	2.105951304477389	-1.511030555790557	-1.511030555787577	-0.3404707357208458	-0.004618457965801979	-0.1463032427709341	0.2702875807225176	-2.188738699829343e-07	-1.291920756852802e-07	1.200572211316449e-06	1.182589444029559e-07	-2.247038897234064e-07	1.744259550067356e-07	-1.893730700272871e-07
0.52	-0.1688658704724232	-0.08375218549125038	0.7855409464997746	1.072758071613218	-0.3269415901185663	-0.08216061966417687	-0.8156197953544815	0.9115510553769965	0.9115510553769403	-0.1001305886028917	-0.1744778798256008	0.06846680571587609	-0.01187032611072526	-0.3019648069133434	-0.2191654252568475	-0.4526341593326864	1.829663881818038	-0.02451311579024122	0.5243009518880081	-0.7883559169197567	1.636766515363459	1.636766515363506	0.135674289700788	0.0002959311716627491	0.212583557405213	0.03806465968329206	-0.3336270994588327	0.01210463284687415	-0.004468731760877018	-0.2289577193785214	0.1413815704485094	0.05263945631260579	0.368522354757892	0.1882612351098233	-23.6546413726275	4.185406103141422	-13.82587352907745	-715.0718770680642	-76.02831671046214	-10.14126542341057	0.4712639964931078	0.8328918613559995	-0.0310291568689368	-2.031553160515269	0.3100917879523802	-0.5182970367792634	2.15529849360629	-1.651146482191904	-1.651146482191903	-0.2734110967867723	-0.005340256214883597	-0.1680895867012724	0.2870534049218905	-2.057629144701494e-07	-8.157402686642173e-08	1.175357757232043e-06	1.181692010253776e-07	-2.043279071213745e-07	1.925835551078615e-07	-1.787927195818327e-07
0.53	-0.1718615105615694	-0.0859022083446271	0.7810140479449218	1.090950563626457	-0.3271720020436931	-0.07694285221731004	-0.8233950568960575	0.9278337426371082	0.9278337426370469	-0.0987897652831521	-0.1744751277897503	0.07058349199251054	-0.01147641203217668	-0.2971237634719877	-0.2108422234119098	-0.4526431958061046	1.808595954972792	-0.0215773814374608	0.519188104426624	-0.7666376245324232	1.619540985299771	1.619540985299803	0.1324877688697337	0.0002500436354643211	0.2107067388074318	0.04069665066845577	-0.3409077256014248	0.01192526173656497	-0.004619594325614765	-0.23200960198183	0.1422775885474809	0.05271366134936738	0.3751945297743072	0.1782294874113027	-23.61870357406418	4.103821618581374	-13.77835380020807	-719.9476330172458	-75.81083493431754	-9.479792901353436	0.4964195535294458	0.8315962709271029	0.02947375698494057	-2.180225262065145	0.2839507895303483	-0.5176000912596497	2.188909641209471	-1.792714325162845	-1.792714325165064	-0.3416544215853838	-0.004642140393827101	-0.2045161038016386	0.2479193000473907	-1.928419811757816e-07	-4.81856910069023e-08	1.139227596002116e-06	1.156462982023116e-07	-1.854988778045222e-07	2.075147520222224e-07	-1.689770942465318e-07
0.54	-0.1748075612092062	-0.08796908679458242	0.776490121955247	1.108925213808145	-0.3273733293191627	-0.07177817754311133	-0.8309513725077788	0.9439372829852487	0.9439372829851685	-0.09748088354083397	-0.1744729204568477	0.07268000246167683	-0.01105684857283002	-0.2920469186076656	-0.2025365445725701	-0.4520396462970295	1.78609551550611	-0.01869618586113899	0.5136823973475885	-0.744566730948536	1.60093713296786	1.600937132967877	0.129285974225881	0.0001869905764167006	0.2085483959102457	0.04319453584297867	-0.3481883517439141	0.01174589062637806	-0.004770456890692688	-0.2350614845851185	0.1431736066464793	0.0527878663862755	0.3818667047907889	0.1634569639086434	-23.58288770145229	4.023344925071926	-13.76090871827543	-724.9218331248198	-75.64255562895328	-8.821261099577322	0.5184242810868458	0.8293872602361967	0.09148803962968015	-2.31805568480251	0.2991840326605711	-0.5968689603097213	2.225818732917368	-1.926810935836282	-1.926810935836269	-0.2764658593463559	-0.008773360784836023	-0.2243944465825397	0.2602322427936254	-1.801312852294497e-07	-3.054086735771552e-08	1.091020482185656e-06	1.104313891842381e-07	-1.68381371271273e-07	2.188763113682474e-07	-1.600075477565072e-07
0.55	-0.1777017234203004	-0.089953059535322	0.7719752819916769	1.126667911175372	-0.3275460524100434	-0.06667048976200105	-0.838285327997993	0.9598481038314028	0.9598481038314233	-0.09620391123085492	-0.1744713680256051	0.07475363241118345	-0.01061287486196089	-0.2867485476106465	-0.1942667504576255	-0.4508266655965096	1.762217461551077	-0.01585804117926246	0.5077969589226822	-0.7221800343544964	1.581013121339578	1.581013121339606	0.1261075861975832	0.0001236641891482471	0.206138658545924	0.04557944514782891	-0.3551687209427217	0.0114556927164666	-0.00487835189977777	-0.2380599495790005	0.1439263924497232	0.0527574979529637	0.3882036220996049	0.1124551993502351	-23.49388271519743	3.932754834532133	-13.64333738311777	-729.6462198312217	-75.40516332221019	-8.167271402564612	0.5410702727172351	0.8244849716846874	0.1514233993140551	-2.456679347615919	0.2745496712340681	-0.5932489308334919	2.251745034015051	-2.05725249178824	-2.057252491786313	-0.3386507547270996	-0.004870515484757983	-0.2550964260533617	0.2243848012970168	-1.690636089685011e-07	-2.965471201365704e-08	1.035178309814099e-06	1.03320858066098e-07	-1.543684088555504e-07	2.279829981815815e-07	-1.528633965287817e-07
0.5600000000000001	-0.1805417965686979	-0.09185459243800069	0.7674756158979218	1.144165028183711	-0.3276907100570379	-0.06162342989458468	-0.8453940865399923	0.97555327331819	0.9755532733182894	-0.0949587478972142	-0.1744704005057643	0.07680199837811075	-0.01014569915265026	-0.2812291060652504	-0.1860485769603953	-0.449004872333971	1.736979443725564	-0.01308309708608521	0.5015568146076892	-0.6995273413056976	1.559806861092734	1.559806861092776	0.122924178963076	7.000829041594455e-05	0.2034955993937458	0.04783493553133637	-0.3621490901414259	0.01116549480660577	-0.004986246908995683	-0.2410584145728791	0.1446791782529652	0.05272712951970761	0.3945405394085085	0.05626244907676952	-23.40539960867677	3.843883114883874	-13.55480387872817	-734.4734770375495	-75.21507322818476	-7.524283356331148	0.5626383907626992	0.8190631366931592	0.2132505520333684	-2.590048458898449	0.2865439149206736	-0.6678101383271912	2.279018023869545	-2.183260659548403	-2.183260659548389	-0.2774697005881415	-0.006839263077675902	-0.2710588041540687	0.2343484585249946	-1.599675563300123e-07	-4.887895863575186e-08	9.701740671764239e-07	9.393558042787816e-08	-1.440808993808594e-07	2.343838379556865e-07	-1.47909719615815e-07
0.5700000000000001	-0.1833256359380404	-0.09367426145000889	0.7629972022635313	1.161403120761591	-0.3278079339578903	-0.05664071978697652	-0.8522751329372473	0.9910400970802552	0.9910400970801878	-0.09374525170005252	-0.1744700569118166	0.07882282207101533	-0.009656599778031374	-0.2755060946662909	-0.1778992566965635	-0.4465770871611109	1.710423301135073	-0.01037417411870546	0.4949269852151387	-0.6766535705020726	1.537355075189168	1.537355075189182	0.1197758801314044	-1.496495772719909e-06	0.200635397799832	0.04996247678063126	-0.3687465147592552	0.01078912889685358	-0.005059240098543549	-0.2440620734630707	0.1453634869234539	0.05255006860035155	0.4004723330528763	-0.01215012194520522	-23.25094052330268	3.744346200939294	-13.37342465528653	-739.0175677610926	-74.93088370479099	-6.910578070563038	0.5820160011676596	0.8107795078659105	0.2726299549318936	-2.720784516202904	0.2610762010769417	-0.6694294723555222	2.295811755457029	-2.306530953846208	-2.306530953850211	-0.3333905491352002	-0.007145058470990694	-0.298557289446822	0.1984878239645603	-1.487340076025802e-07	-4.531606005755804e-08	9.140892067662243e-07	8.749061917546659e-08	-1.31004553438246e-07	2.386306931371101e-07	-1.399683105672117e-07
0.58	-0.1860512684960666	-0.0954128546520519	0.7585460839718728	1.17836917444216	-0.327898466686373	-0.051726079999856	-0.858926590597095	1.006296324303672	1.006296324303427	-0.09256321460612688	-0.1744703961601229	0.08081403245749225	-0.009146918817753237	-0.2695877437990576	-0.1698334149673603	-0.4435458037874786	1.682571664261459	-0.007744862614095726	0.487942750517126	-0.6536095938244821	1.513687553362185	1.513687553362172	0.1166323583125902	-6.656016520922824e-05	0.197572938108445	0.05195125266324138	-0.375343939377018	0.01041276298705383	-0.005132233287812164	-0.2470657323532732	0.1460477955939134	0.05237300768093037	0.4064041266973181	-0.08553871650436387	-23.09891992922387	3.648979329734534	-13.22496183132293	-743.6583063935265	-74.6941872673988	-6.328110108174088	0.6017062844178617	0.8023674297672824	0.3339501921877668	-2.849147315523052	0.270621622366696	-0.7386911994197003	2.313059198662959	-2.426407844231525	-2.426407844231529	-0.2765142980165736	-0.005551039727269475	-0.3115104236489036	0.2065953851879974	-1.347167430383849e-07	-1.20768793580594e-08	8.696202860011085e-07	8.487490716968893e-08	-1.142962344211293e-07	2.400723590815533e-07	-1.281359015280122e-07
0.59	-0.1887168045515599	-0.09707125656930889	0.7541282722815025	1.195050420564233	-0.3279630249833034	-0.04688304797007858	-0.8653468563192543	1.021309966077463	1.021309966077261	-0.0914123936250045	-0.1744712730872947	0.0827737058171404	-0.008617929608327506	-0.2634895076456702	-0.161865408413564	-0.4399174581098684	1.653470911572222	-0.005182742933565244	0.4806038136026967	-0.6304290408912616	1.488850091840875	1.488850091840859	0.1135339224624344	-0.0001116333300094262	0.1943339124574144	0.05382204772441437	-0.3815810660355045	0.009965878640453951	-0.005170818398316302	-0.2500099405880082	0.1465937280224816	0.05207846576956549	0.411946814718971	-0.1911673686795929	-22.89073436563742	3.545230941685917	-12.97716260866321	-747.9955630167063	-74.37747593615249	-5.777054853503483	0.6183615975550486	0.791267946884513	0.3921172804698227	-2.971554676549956	0.2465019988433196	-0.7405749456387786	2.322729798434454	-2.540997498738307	-2.540997498738774	-0.3261900172224413	-0.004233656012010528	-0.3342640538079175	0.1735402085063663	-1.207680464417615e-07	1.831009088445119e-08	8.222224096823456e-07	8.183991982234758e-08	-9.825020769237841e-08	2.386579012231176e-07	-1.16233617019095e-07
